<?xml version="1.0" encoding="UTF-8"?>
<svg xmlns="http://www.w3.org/2000/svg" height="513" width="513" class="pyqrcode"><path transform="scale(9)" stroke="#000" class="pyqrline" d="M4 4.5h7m2 0h1m1 0h3m2 0h2m1 0h1m3 0h2m2 0h1m1 0h4m1 0h2m1 0h1m2 0h1m1 0h7m-49 1h1m5 0h1m1 0h2m1 0h1m3 0h2m4 0h2m2 0h2m5 0h3m2 0h4m1 0h1m5 0h1m-49 1h1m1 0h3m1 0h1m1 0h1m2 0h2m1 0h1m3 0h1m1 0h1m2 0h1m1 0h1m2 0h1m1 0h4m1 0h1m1 0h1m1 0h2m1 0h1m1 0h3m1 0h1m-49 1h1m1 0h3m1 0h1m1 0h1m3 0h1m1 0h2m1 0h1m3 0h3m3 0h1m2 0h1m4 0h1m1 0h1m1 0h1m2 0h1m1 0h3m1 0h1m-49 1h1m1 0h3m1 0h1m1 0h2m2 0h1m1 0h6m2 0h5m1 0h1m3 0h1m1 0h1m1 0h1m5 0h1m1 0h3m1 0h1m-49 1h1m5 0h1m1 0h1m2 0h1m6 0h2m1 0h2m3 0h2m2 0h1m1 0h1m1 0h2m1 0h2m3 0h1m5 0h1m-49 1h7m1 0h1m1 0h1m1 0h1m1 0h1m1 0h1m1 0h1m1 0h1m1 0h1m1 0h1m1 0h1m1 0h1m1 0h1m1 0h1m1 0h1m1 0h1m1 0h1m1 0h1m1 0h7m-40 1h1m1 0h1m2 0h1m1 0h2m4 0h1m3 0h1m2 0h3m2 0h1m2 0h1m1 0h2m-39 1h1m2 0h7m2 0h2m4 0h1m1 0h8m2 0h1m1 0h1m2 0h3m1 0h1m1 0h5m-47 1h1m1 0h1m1 0h1m1 0h3m1 0h2m2 0h2m2 0h4m2 0h1m1 0h2m2 0h1m1 0h1m2 0h2m1 0h1m1 0h1m2 0h1m2 0h2m-49 1h2m2 0h3m4 0h1m2 0h3m2 0h1m3 0h7m1 0h2m8 0h1m1 0h1m4 0h1m-48 1h3m1 0h1m1 0h1m1 0h2m1 0h2m1 0h1m3 0h1m2 0h1m1 0h2m3 0h1m1 0h1m1 0h1m2 0h3m4 0h3m-44 1h1m3 0h5m2 0h1m3 0h3m2 0h2m4 0h1m2 0h2m1 0h1m1 0h1m1 0h2m1 0h1m1 0h3m1 0h2m-49 1h1m1 0h1m1 0h2m1 0h1m1 0h3m2 0h2m3 0h1m2 0h1m3 0h1m3 0h1m1 0h1m4 0h1m3 0h1m1 0h2m3 0h1m-47 1h2m1 0h2m1 0h1m3 0h1m3 0h1m1 0h2m1 0h2m4 0h1m1 0h2m1 0h2m2 0h2m1 0h1m1 0h1m6 0h1m-49 1h3m1 0h2m2 0h2m1 0h1m2 0h4m1 0h1m1 0h1m2 0h1m1 0h1m4 0h2m3 0h2m2 0h1m3 0h2m1 0h1m-46 1h1m3 0h2m1 0h2m5 0h1m3 0h5m3 0h3m1 0h1m1 0h1m1 0h1m1 0h1m3 0h1m1 0h2m1 0h2m-49 1h1m1 0h1m1 0h1m2 0h1m3 0h1m2 0h1m2 0h1m1 0h4m2 0h1m1 0h2m1 0h1m4 0h2m6 0h2m1 0h1m1 0h1m-49 1h1m1 0h1m1 0h1m1 0h1m3 0h2m1 0h1m10 0h3m1 0h1m2 0h2m1 0h1m1 0h1m3 0h1m4 0h4m-49 1h1m6 0h1m2 0h1m2 0h6m1 0h3m1 0h4m1 0h1m1 0h1m1 0h1m2 0h4m3 0h3m1 0h1m-46 1h1m1 0h1m1 0h3m1 0h2m1 0h2m1 0h2m1 0h5m2 0h2m1 0h6m1 0h1m2 0h1m1 0h2m1 0h1m-44 1h5m3 0h1m1 0h2m1 0h3m1 0h3m1 0h4m1 0h1m1 0h1m1 0h3m7 0h1m3 0h2m1 0h1m-49 1h1m3 0h6m1 0h2m2 0h3m1 0h1m2 0h6m2 0h4m2 0h2m2 0h6m2 0h1m-46 1h2m3 0h3m1 0h2m1 0h1m1 0h2m3 0h1m3 0h1m2 0h2m4 0h4m1 0h1m3 0h2m1 0h2m-49 1h1m2 0h2m1 0h1m1 0h4m3 0h2m1 0h2m2 0h1m1 0h1m1 0h2m1 0h1m6 0h1m3 0h1m1 0h1m1 0h2m-46 1h1m1 0h3m3 0h2m1 0h1m2 0h1m1 0h1m1 0h1m3 0h1m3 0h1m1 0h3m1 0h1m2 0h1m1 0h1m2 0h1m3 0h3m1 0h1m-45 1h5m2 0h1m1 0h2m3 0h1m1 0h8m1 0h1m3 0h1m2 0h2m2 0h5m1 0h1m1 0h1m-49 1h1m1 0h1m4 0h2m2 0h1m1 0h1m5 0h1m1 0h1m2 0h3m1 0h2m1 0h4m1 0h1m2 0h5m1 0h1m1 0h1m-48 1h8m1 0h6m4 0h1m1 0h2m1 0h1m3 0h1m1 0h3m3 0h4m3 0h1m3 0h1m-47 1h1m2 0h1m2 0h1m1 0h1m5 0h6m1 0h2m1 0h5m1 0h1m1 0h1m1 0h1m1 0h1m1 0h1m1 0h1m1 0h1m3 0h2m-48 1h1m1 0h2m1 0h2m1 0h3m1 0h2m1 0h3m1 0h2m2 0h3m2 0h1m1 0h3m5 0h7m2 0h1m-48 1h4m3 0h2m2 0h2m1 0h1m1 0h1m2 0h2m1 0h2m4 0h1m1 0h1m1 0h1m5 0h1m2 0h1m1 0h2m1 0h1m-48 1h8m3 0h3m5 0h1m1 0h1m1 0h1m1 0h1m1 0h10m2 0h2m1 0h1m2 0h1m-43 1h3m1 0h1m1 0h1m1 0h2m1 0h7m2 0h1m1 0h1m3 0h3m1 0h1m2 0h1m5 0h2m1 0h4m-47 1h1m2 0h2m2 0h1m1 0h1m1 0h2m4 0h11m1 0h3m1 0h3m1 0h4m1 0h1m3 0h1m-48 1h2m4 0h1m7 0h2m3 0h5m4 0h6m1 0h1m2 0h5m1 0h1m1 0h1m-48 1h2m1 0h2m1 0h4m1 0h3m1 0h5m1 0h1m1 0h10m1 0h1m1 0h1m2 0h1m2 0h2m-44 1h1m1 0h3m2 0h1m1 0h3m1 0h1m1 0h2m3 0h2m1 0h2m1 0h1m2 0h3m3 0h3m1 0h3m1 0h1m1 0h1m2 0h1m-48 1h1m3 0h4m3 0h1m2 0h1m1 0h3m3 0h3m3 0h3m5 0h1m4 0h1m2 0h2m1 0h1m-48 1h3m5 0h1m1 0h1m1 0h1m4 0h1m1 0h1m3 0h1m1 0h1m3 0h1m1 0h5m2 0h1m2 0h3m2 0h2m-49 1h3m3 0h1m6 0h2m1 0h2m1 0h2m1 0h8m1 0h3m2 0h1m1 0h7m2 0h2m-41 1h2m3 0h4m3 0h1m1 0h1m3 0h2m2 0h1m2 0h3m3 0h2m3 0h2m2 0h1m-49 1h7m1 0h1m2 0h2m1 0h1m2 0h4m1 0h1m1 0h1m1 0h2m2 0h2m1 0h2m5 0h1m1 0h1m1 0h3m1 0h1m-49 1h1m5 0h1m1 0h1m1 0h1m1 0h1m1 0h1m1 0h5m1 0h1m3 0h2m2 0h1m1 0h1m1 0h5m1 0h1m3 0h2m1 0h1m-48 1h1m1 0h3m1 0h1m3 0h4m1 0h1m1 0h2m2 0h6m3 0h3m1 0h1m1 0h1m2 0h6m3 0h1m-49 1h1m1 0h3m1 0h1m2 0h1m4 0h2m1 0h5m2 0h7m1 0h2m1 0h1m1 0h1m2 0h1m3 0h1m-45 1h1m1 0h3m1 0h1m1 0h1m1 0h2m2 0h1m3 0h1m1 0h2m1 0h3m1 0h1m1 0h2m4 0h1m1 0h1m2 0h1m2 0h2m3 0h1m-49 1h1m5 0h1m2 0h6m1 0h1m3 0h1m2 0h1m2 0h1m5 0h3m1 0h2m2 0h2m3 0h1m-46 1h7m3 0h1m1 0h1m1 0h1m1 0h3m3 0h2m5 0h2m1 0h1m1 0h1m1 0h3m1 0h2m1 0h3m2 0h1"/></svg>
